<svg xmlns="http://www.w3.org/2000/svg" xmlns:xlink="http://www.w3.org/1999/xlink" viewBox="0 0 512 128" width="512" height="128"><style>
</style><defs><symbol id="Symbol-1" preserveAspectRatio="none" width="180.04" height="179.5" viewBox="0 0 180.04 179.5" overflow="visible"><path fill="#0a99d8" stroke="#fff" d="M-150.58-11.32c1.42-19.15 6.31-37.34 14.68-54.57c8.12-16.72 18.98-31.47 32.59-44.24c13.65-12.8 29.1-22.72 46.35-29.76c17.86-7.27 36.5-10.98 55.94-11.11l6.04-0.04v39.44h35.89v53.88h-35.89v52.84h-63.85v-34.89h-50.81v34.89h-41.42Z" fill-rule="evenodd" stroke-width="12" transform="translate(145.54,190) scale(1.003,1.003) translate(-0.51,.41)"/><ellipse rx="47" ry="47" fill="#0a99d8" stroke="#fff" stroke-width="9" transform="translate(57.04,51.5)" id="el0_t"/></symbol><symbol id="Symbol-2" preserveAspectRatio="none" width="180.04" height="179.5" viewBox="0 0 180.04 179.5" overflow="visible"><path fill="#d40739" stroke="#fff" d="M-150.58-11.32c1.42-19.15 6.31-37.34 14.68-54.57c8.12-16.72 18.98-31.47 32.59-44.24c13.65-12.8 29.1-22.72 46.35-29.76c17.86-7.27 36.5-10.98 55.94-11.11l6.04-0.04v39.44h35.89v53.88h-35.89v52.84h-63.85v-34.89h-50.81v34.89h-41.42Z" fill-rule="evenodd" stroke-width="12" transform="translate(145.54,190) scale(1.003,1.003) translate(-0.51,.41)"/><ellipse rx="47" ry="47" fill="#d40739" stroke="#fff" stroke-width="9" transform="translate(57.04,51.5)" id="el1_t"/></symbol><symbol id="Symbol-3" preserveAspectRatio="none" width="180.04" height="179.5" viewBox="0 0 180.04 179.5" overflow="visible"><path fill="#9dbd12" stroke="#fff" d="M-150.58-11.32c1.42-19.15 6.31-37.34 14.68-54.57c8.12-16.72 18.98-31.47 32.59-44.24c13.65-12.8 29.1-22.72 46.35-29.76c17.86-7.27 36.5-10.98 55.94-11.11l6.04-0.04v39.44h35.89v53.88h-35.89v52.84h-63.85v-34.89h-50.81v34.89h-41.42Z" fill-rule="evenodd" stroke-width="12" transform="translate(145.54,190) scale(1.003,1.003) translate(-0.51,.41)"/><ellipse rx="47" ry="47" fill="#9dbd12" stroke="#fff" stroke-width="9" transform="translate(57.04,51.5)" id="el2_t"/></symbol><symbol id="Symbol-4" preserveAspectRatio="none" width="180.04" height="179.5" viewBox="0 0 180.04 179.5" overflow="visible"><path fill="#f25a2d" stroke="#fff" d="M-150.58-11.32c1.42-19.15 6.31-37.34 14.68-54.57c8.12-16.72 18.98-31.47 32.59-44.24c13.65-12.8 29.1-22.72 46.35-29.76c17.86-7.27 36.5-10.98 55.94-11.11l6.04-0.04v39.44h35.89v53.88h-35.89v52.84h-63.85v-34.89h-50.81v34.89h-41.42Z" fill-rule="evenodd" stroke-width="12" transform="translate(145.54,190) scale(1.003,1.003) translate(-0.51,.41)"/><ellipse rx="47" ry="47" fill="#f25a2d" stroke="#fff" stroke-width="9" transform="translate(57.04,51.5)" id="el3_t"/></symbol></defs><g transform="translate(64,64) scale(.32,.32) translate(-171,-171)"><use width="180.04" height="179.5" xlink:href="#Symbol-3" transform="translate(171,171) rotate(180) scale(.9,.9) translate(-144.54,-190)"/><use width="180.04" height="179.5" xlink:href="#Symbol-4" transform="translate(171,171) rotate(270) scale(.9,.9) translate(-144.54,-190)"/><use width="180.04" height="179.5" xlink:href="#Symbol-2" transform="translate(171,171) rotate(90) scale(.9,.9) translate(-144.54,-190)"/><use width="180.04" height="179.5" xlink:href="#Symbol-1" transform="translate(171,171) scale(.9,.9) translate(-144.54,-190)"/></g><g transform="translate(180.94,67.13)"><path fill="#fff" d="M-22.56-2.97c0 1.54-0.2 2.99-0.6 4.33c-0.37 1.34-0.96 2.52-1.76 3.53c-0.81 1.01-1.82 1.8-3.03 2.37c-1.24 .57-2.69 .85-4.33 .85h-5.19v-22.47h4.68c1.78 0 3.33 .28 4.64 .85c1.28 .57 2.34 1.36 3.18 2.37c.8 1.01 1.41 2.2 1.81 3.58c.4 1.41 .6 2.94 .6 4.59Zm8.02 .35c0-2.86-0.41-5.44-1.21-7.76c-0.81-2.32-1.98-4.3-3.53-5.95c-1.55-1.68-3.44-2.96-5.69-3.83c-2.26-0.91-4.83-1.36-7.72-1.36h-8.56c-1.18 0-2.14 .37-2.88 1.11c-0.73 .7-1.1 1.66-1.1 2.87v28.88c0 .74 .13 1.36 .4 1.86c.27 .51 .6 .91 1.01 1.21c.4 .31 .84 .52 1.31 .66c.5 .1 .95 .15 1.36 .15h8.97c2.65 0 5.05-0.42 7.21-1.26c2.18-0.84 4.04-2.03 5.59-3.58c1.54-1.54 2.74-3.43 3.58-5.64c.84-2.19 1.26-4.64 1.26-7.36Zm19.85 5.49v1.21c0 1.78-0.45 3.16-1.36 4.13c-0.87 .98-2.3 1.47-4.28 1.47c-0.54 0-1.08-0.05-1.61-0.16c-0.54-0.06-1.03-0.21-1.47-0.45c-0.4-0.2-0.73-0.47-1-0.81c-0.27-0.33-0.41-0.77-0.41-1.31c0-1.14 .32-1.98 .96-2.52c.64-0.57 1.45-0.97 2.42-1.21c.97-0.23 2.07-0.35 3.28-0.35c1.17 0 2.33 0 3.47 0Zm7.11 9.02v-16.43c0-2.68-0.92-4.73-2.77-6.14c-1.82-1.45-4.45-2.17-7.91-2.17c-1.11 0-2.26 .15-3.43 .45c-1.21 .3-2.32 .71-3.33 1.21c-1.04 .51-1.9 1.09-2.57 1.77c-0.67 .67-1.01 1.39-1.01 2.16c0 .74 .26 1.45 .76 2.12c.5 .67 1.34 1.01 2.52 1.01c.47 0 .91-0.12 1.31-0.36c.4-0.26 .86-0.57 1.36-0.9c.5-0.31 1.09-0.59 1.76-0.86c.71-0.27 1.58-0.4 2.63-0.4c1.04 0 1.84 .15 2.41 .45c.58 .3 .86 .81 .86 1.51v2.02c-1.71 0-3.56 .1-5.54 .3c-1.98 .2-3.82 .64-5.5 1.31c-1.71 .67-3.12 1.65-4.23 2.92c-1.11 1.28-1.66 2.98-1.66 5.09c0 1.45 .25 2.74 .75 3.88c.51 1.11 1.21 2.04 2.12 2.78c.91 .74 1.98 1.29 3.23 1.66c1.24 .4 2.63 .6 4.18 .6c.6 0 1.24-0.06 1.91-0.2c.71-0.1 1.38-0.28 2.02-0.55c.64-0.27 1.23-0.59 1.76-0.96c.54-0.37 .96-0.82 1.26-1.36c.27 1.18 .73 1.98 1.36 2.42c.64 .44 1.35 .65 2.12 .65c1.11 0 2-0.38 2.67-1.15c.64-0.78 .96-1.72 .96-2.83Zm23.33-4.73c0-1.42-0.32-2.61-0.95-3.58c-0.64-0.94-1.43-1.73-2.37-2.37c-0.98-0.67-2.02-1.21-3.13-1.61c-1.11-0.44-2.13-0.86-3.07-1.26c-0.98-0.37-1.78-0.76-2.42-1.16c-0.64-0.37-0.96-0.86-0.96-1.46c0-0.71 .25-1.23 .76-1.57c.5-0.33 1.09-0.5 1.76-0.5c.64 0 1.28 .12 1.92 .35c.63 .24 1.24 .49 1.81 .76c.61 .27 1.14 .52 1.61 .75c.51 .21 .96 .31 1.36 .31c.88 0 1.6-0.34 2.17-1.01c.57-0.67 .86-1.43 .86-2.27c0-0.94-0.3-1.75-0.91-2.42c-0.64-0.67-1.43-1.22-2.37-1.66c-0.91-0.4-1.9-0.72-2.97-0.96c-1.11-0.23-2.12-0.35-3.03-0.35c-1.47 0-2.83 .22-4.08 .65c-1.21 .41-2.27 .99-3.17 1.77c-0.91 .77-1.6 1.69-2.07 2.77c-0.5 1.04-0.75 2.2-0.75 3.48c0 1.41 .31 2.6 .95 3.57c.64 .98 1.43 1.79 2.37 2.42c.98 .68 2.02 1.21 3.13 1.62c1.11 .43 2.13 .85 3.07 1.26c.97 .37 1.78 .75 2.42 1.16c.64 .37 .96 .84 .96 1.41c0 .67-0.22 1.19-0.66 1.56c-0.4 .37-1.17 .55-2.32 .55c-0.87 0-1.63-0.13-2.26-0.4c-0.64-0.27-1.25-0.55-1.82-0.86c-0.54-0.33-1.09-0.63-1.66-0.9c-0.57-0.24-1.21-0.36-1.92-0.36c-0.53 0-0.99 .12-1.36 .36c-0.4 .23-0.74 .52-1.01 .85c-0.26 .34-0.48 .71-0.65 1.11c-0.13 .37-0.2 .69-0.2 .96c0 .84 .35 1.61 1.06 2.32c.67 .7 1.53 1.31 2.57 1.81c1.04 .51 2.16 .91 3.37 1.21c1.21 .27 2.34 .4 3.38 .4c1.58 0 3.02-0.23 4.33-0.7c1.31-0.44 2.44-1.04 3.38-1.82c.94-0.77 1.65-1.69 2.12-2.77c.5-1.04 .75-2.18 .75-3.42Zm27.12 4.58v-14.56c0-1.58-0.27-2.99-0.81-4.24c-0.5-1.24-1.21-2.3-2.12-3.17c-0.87-0.84-1.95-1.48-3.22-1.92c-1.25-0.47-2.59-0.7-4.03-0.7c-0.57 0-1.18 .05-1.82 .15c-0.6 .07-1.21 .22-1.81 .45c-0.61 .2-1.18 .46-1.72 .76c-0.53 .34-1 .76-1.41 1.26h-0.1v-7.71c0-1.24-0.35-2.25-1.06-3.03c-0.67-0.73-1.56-1.1-2.67-1.1c-1.11 0-2 .37-2.67 1.1c-0.7 .78-1.06 1.79-1.06 3.03v29.68c0 1.25 .36 2.24 1.06 2.98c.67 .77 1.56 1.15 2.67 1.15c1.11 0 2-0.38 2.67-1.15c.71-0.74 1.06-1.73 1.06-2.98v-13.25c0-1.45 .41-2.67 1.21-3.68c.81-0.98 1.98-1.46 3.53-1.46c1.34 0 2.49 .42 3.43 1.26c.94 .8 1.41 2.1 1.41 3.88v13.25c0 1.25 .35 2.24 1.06 2.98c.67 .77 1.56 1.15 2.67 1.15c1.11 0 2-0.38 2.67-1.15c.7-0.74 1.06-1.73 1.06-2.98Zm23.23-10.18c0 .91-0.12 1.8-0.35 2.67c-0.24 .88-0.59 1.68-1.06 2.42c-0.51 .71-1.11 1.28-1.82 1.72c-0.74 .47-1.58 .7-2.52 .7c-1.04 0-1.93-0.23-2.67-0.7c-0.7-0.47-1.31-1.08-1.81-1.82c-0.47-0.74-0.82-1.58-1.06-2.52c-0.2-0.91-0.3-1.81-0.3-2.72c0-0.91 .12-1.8 .35-2.67c.24-0.87 .59-1.66 1.06-2.37c.5-0.67 1.11-1.23 1.81-1.66c.74-0.44 1.62-0.66 2.62-0.66c.94 0 1.78 .24 2.52 .71c.71 .47 1.31 1.06 1.82 1.76c.47 .74 .82 1.56 1.06 2.47c.23 .91 .35 1.8 .35 2.67Zm7.46 .3c0-1.78-0.25-3.56-0.76-5.34c-0.5-1.78-1.26-3.36-2.27-4.74c-0.97-1.37-2.21-2.48-3.73-3.32c-1.47-0.87-3.22-1.31-5.24-1.31c-2.68 0-5.04 .86-7.05 2.57v-7.71c0-1.25-0.35-2.25-1.06-3.03c-0.67-0.73-1.56-1.1-2.67-1.1c-1.11 0-2 .37-2.67 1.1c-0.71 .78-1.06 1.78-1.06 3.03v29.73c0 1.25 .35 2.24 1.06 2.98c.67 .77 1.56 1.15 2.67 1.15c1.04 0 1.86-0.31 2.47-0.95c.6-0.64 1.02-1.46 1.26-2.47c.67 1.14 1.66 2 2.97 2.57c1.28 .57 2.55 .85 3.83 .85c1.85 0 3.53-0.4 5.04-1.21c1.51-0.77 2.81-1.83 3.88-3.17c1.08-1.31 1.9-2.81 2.47-4.49c.57-1.68 .86-3.39 .86-5.14Zm21.27-0.3c0 .91-0.12 1.8-0.36 2.67c-0.27 .91-0.64 1.72-1.11 2.42c-0.47 .71-1.07 1.28-1.81 1.72c-0.74 .47-1.61 .7-2.62 .7c-1.01 0-1.88-0.23-2.62-0.7c-0.74-0.44-1.34-1.01-1.82-1.72c-0.47-0.7-0.84-1.51-1.1-2.42c-0.24-0.87-0.36-1.76-0.36-2.67c0-0.87 .12-1.76 .36-2.67c.23-0.91 .58-1.73 1.05-2.47c.47-0.7 1.08-1.29 1.82-1.76c.74-0.47 1.63-0.71 2.67-0.71c1.04 0 1.93 .24 2.67 .71c.74 .47 1.34 1.06 1.81 1.76c.47 .74 .83 1.56 1.06 2.47c.24 .91 .36 1.8 .36 2.67Zm7.4 0c0-1.88-0.31-3.69-0.95-5.44c-0.68-1.75-1.58-3.28-2.73-4.59c-1.17-1.34-2.58-2.4-4.23-3.17c-1.65-0.81-3.44-1.21-5.39-1.21c-1.95 0-3.75 .4-5.39 1.21c-1.65 .77-3.06 1.83-4.24 3.17c-1.14 1.31-2.05 2.84-2.72 4.59c-0.64 1.75-0.96 3.56-0.96 5.44c0 1.92 .32 3.75 .96 5.5c.64 1.74 1.53 3.27 2.67 4.58c1.18 1.31 2.59 2.34 4.24 3.08c1.64 .77 3.46 1.15 5.44 1.15c1.98 0 3.8-0.38 5.44-1.15c1.65-0.74 3.06-1.77 4.23-3.08c1.15-1.31 2.04-2.84 2.68-4.58c.64-1.75 .95-3.58 .95-5.5Zm19.46 1.31v1.21c0 1.78-0.46 3.16-1.36 4.13c-0.88 .98-2.3 1.47-4.29 1.47c-0.53 0-1.07-0.05-1.61-0.16c-0.54-0.06-1.02-0.21-1.46-0.45c-0.4-0.2-0.74-0.47-1.01-0.81c-0.27-0.33-0.4-0.77-0.4-1.31c0-1.14 .32-1.98 .96-2.52c.63-0.57 1.44-0.97 2.41-1.21c.98-0.23 2.07-0.35 3.28-0.35c1.18 0 2.34 0 3.48 0Zm7.1 9.02v-16.43c0-2.68-0.92-4.73-2.77-6.14c-1.81-1.45-4.45-2.17-7.91-2.17c-1.11 0-2.25 .15-3.43 .45c-1.21 .3-2.32 .71-3.32 1.21c-1.05 .51-1.9 1.09-2.57 1.77c-0.68 .67-1.01 1.39-1.01 2.16c0 .74 .25 1.45 .75 2.12c.51 .67 1.35 1.01 2.52 1.01c.47 0 .91-0.12 1.31-0.36c.41-0.26 .86-0.57 1.36-0.9c.51-0.31 1.1-0.59 1.77-0.86c.7-0.27 1.58-0.4 2.62-0.4c1.04 0 1.85 .15 2.42 .45c.57 .3 .86 .81 .86 1.51v2.02c-1.72 0-3.57 .1-5.55 .3c-1.98 .2-3.81 .64-5.49 1.31c-1.72 .67-3.13 1.65-4.23 2.92c-1.11 1.28-1.67 2.98-1.67 5.09c0 1.45 .25 2.74 .76 3.88c.5 1.11 1.21 2.04 2.11 2.78c.91 .74 1.99 1.29 3.23 1.66c1.24 .4 2.64 .6 4.18 .6c.61 0 1.25-0.06 1.92-0.2c.7-0.1 1.38-0.28 2.01-0.55c.64-0.27 1.23-0.59 1.77-0.96c.54-0.37 .96-0.82 1.26-1.36c.27 1.18 .72 1.98 1.36 2.42c.64 .44 1.34 .65 2.11 .65c1.11 0 2-0.38 2.68-1.15c.63-0.78 .95-1.72 .95-2.83Zm20.26-20.76c0-1.34-0.38-2.34-1.16-2.97c-0.74-0.68-1.56-1.01-2.47-1.01c-1.17 0-2.16 .27-2.97 .8c-0.81 .51-1.54 1.28-2.22 2.32h-0.1c0-1.21-0.35-2.03-1.06-2.47c-0.7-0.43-1.56-0.65-2.57-0.65c-0.94 0-1.81 .32-2.62 .96c-0.8 .6-1.21 1.52-1.21 2.77v20.86c0 1.25 .36 2.24 1.06 2.98c.67 .77 1.56 1.15 2.67 1.15c1.11 0 2-0.38 2.67-1.15c.71-0.74 1.06-1.73 1.06-2.98v-12.04c0-0.71 .12-1.33 .36-1.87c.26-0.5 .62-0.94 1.05-1.31c.44-0.4 .93-0.74 1.47-1.01c.5-0.26 1.04-0.52 1.61-0.75c.53-0.27 1.07-0.49 1.61-0.66c.54-0.2 1.01-0.42 1.41-0.65c.44-0.24 .77-0.52 1.01-0.86c.27-0.33 .4-0.82 .4-1.46Zm18.9 10.18c0 .91-0.12 1.81-0.35 2.72c-0.24 .94-0.59 1.78-1.06 2.52c-0.47 .74-1.07 1.35-1.81 1.82c-0.71 .47-1.58 .7-2.62 .7c-0.98 0-1.82-0.23-2.52-0.7c-0.74-0.44-1.35-1.01-1.82-1.72c-0.47-0.74-0.84-1.54-1.11-2.42c-0.23-0.87-0.35-1.76-0.35-2.67c0-0.87 .12-1.76 .35-2.67c.27-0.91 .64-1.73 1.11-2.47c.47-0.7 1.08-1.29 1.82-1.76c.7-0.47 1.54-0.71 2.52-0.71c.97 0 1.83 .22 2.56 .66c.75 .43 1.35 .99 1.82 1.66c.47 .71 .84 1.5 1.11 2.37c.23 .87 .35 1.76 .35 2.67Zm7.41 10.43v-29.73c0-1.25-0.34-2.25-1.01-3.03c-0.7-0.73-1.59-1.1-2.67-1.1c-1.11 0-2.02 .37-2.72 1.1c-0.67 .78-1.01 1.78-1.01 3.03v7.71c-2.05-1.71-4.42-2.57-7.11-2.57c-1.98 0-3.72 .44-5.24 1.31c-1.47 .84-2.72 1.95-3.73 3.32c-1 1.38-1.74 2.96-2.21 4.74c-0.51 1.78-0.76 3.56-0.76 5.34c0 1.75 .29 3.46 .86 5.14c.57 1.68 1.38 3.18 2.42 4.49c1.07 1.34 2.37 2.4 3.88 3.17c1.51 .81 3.21 1.21 5.09 1.21c1.24 0 2.52-0.28 3.83-0.85c1.27-0.57 2.27-1.43 2.97-2.57c.24 1.01 .66 1.83 1.26 2.47c.61 .64 1.43 .95 2.47 .95c1.08 0 1.97-0.38 2.67-1.15c.67-0.74 1.01-1.73 1.01-2.98Z"/></g></svg>
