<svg xmlns="http://www.w3.org/2000/svg" viewBox="0 0 256 256"><ellipse cx="128" cy="128" rx="126" ry="126" fill="#fff" stroke="#000" stroke-width="4"/><g transform="translate(17.34,17.34)"><path d="M-0.5-121v10.5" stroke="#000" fill="none" stroke-width="4" stroke-linecap="round" transform="translate(110.66,11.45) scale(1.09,1.09) translate(.5,110.5)"/><path d="M-0.5-121v10.5" stroke="#000" fill="none" stroke-width="4" stroke-linecap="round" transform="translate(110.66,209.87) rotate(180) scale(1.09,1.09) translate(.5,110.5)"/><path d="M-0.5-121v10.5" stroke="#000" fill="none" stroke-width="4" stroke-linecap="round" transform="translate(11.45,110.66) rotate(-90) scale(1.09,1.09) translate(.5,110.5)"/><path d="M-0.5-121v10.5" stroke="#000" fill="none" stroke-width="4" stroke-linecap="round" transform="translate(209.87,110.66) rotate(90) scale(1.09,1.09) translate(.5,110.5)"/><path d="M-0.5-121v6.11" stroke="#000" fill="none" stroke-width="2" stroke-linecap="round" transform="translate(160.26,24.74) rotate(30) scale(1.09,1.09) translate(.5,110.5)"/><path d="M-0.5-121v6.11" stroke="#000" fill="none" stroke-width="2" stroke-linecap="round" transform="translate(196.58,160.26) rotate(120) scale(1.09,1.09) translate(.5,110.5)"/><path d="M-0.5-121v6.11" stroke="#000" fill="none" stroke-width="2" stroke-linecap="round" transform="translate(160.26,196.58) rotate(150) scale(1.09,1.09) translate(.5,110.5)"/><path d="M-0.5-121v6.11" stroke="#000" fill="none" stroke-width="2" stroke-linecap="round" transform="translate(61.05,196.58) rotate(-150) scale(1.09,1.09) translate(.5,110.5)"/><path d="M-0.5-121v6.11" stroke="#000" fill="none" stroke-width="2" stroke-linecap="round" transform="translate(24.74,160.26) rotate(-120) scale(1.09,1.09) translate(.5,110.5)"/><path d="M-0.5-121v6.11" stroke="#000" fill="none" stroke-width="2" stroke-linecap="round" transform="translate(24.74,61.05) rotate(-60) scale(1.09,1.09) translate(.5,110.5)"/><path d="M-0.5-121v6.11" stroke="#000" fill="none" stroke-width="2" stroke-linecap="round" transform="translate(61.05,24.74) rotate(-30) scale(1.09,1.09) translate(.5,110.5)"/><path d="M-0.5-121v6.11" stroke="#000" fill="none" stroke-width="2" stroke-linecap="round" transform="translate(196.58,61.05) rotate(60) scale(1.09,1.09) translate(.5,110.5)"/></g></svg>