<?xml version="1.0" encoding="UTF-8" standalone="no"?>
<!-- Created with Keyshape -->
<svg xmlns="http://www.w3.org/2000/svg" shape-rendering="geometricPrecision" text-rendering="geometricPrecision" viewBox="0 0 64 64" style="white-space: pre;">
    <g transform="translate(32,32) scale(0.541301,0.541301) translate(-58.4,-42.0004)">
        <path fill="#ffffff" stroke="none" d="M95.4,114.6C95.4,114.6,91.8,110.3,88.8,106.5C101.9,102.8,106.9,94.6,106.9,94.6C102.8,97.3,98.9,99.2,95.4,100.5C90.4,102.6,85.6,104,80.9,104.8C71.3,106.6,62.5,106.1,55,104.7C49.3,103.6,44.4,102,40.3,100.4C38,99.5,35.5,98.4,33,97C32.7,96.8,32.4,96.7,32.1,96.5C31.9,96.4,31.8,96.3,31.7,96.2C29.9,95.2,28.9,94.5,28.9,94.5C28.9,94.5,33.7,102.5,46.4,106.3C43.4,110.1,39.7,114.6,39.7,114.6C17.6,113.9,9.2,99.4,9.2,99.4C9.2,67.2,23.6,41.1,23.6,41.1C38,30.3,51.7,30.6,51.7,30.6L52.7,31.8C34.7,37,26.4,44.9,26.4,44.9C26.4,44.9,28.6,43.7,32.3,42C43,37.3,51.5,36,55,35.7C55.6,35.6,56.1,35.5,56.7,35.5C62.8,34.7,69.7,34.5,76.9,35.3C86.4,36.4,96.6,39.2,107,44.9C107,44.9,99.1,37.4,82.1,32.2L83.5,30.6C83.5,30.6,97.2,30.3,111.6,41.1C111.6,41.1,126,67.2,126,99.4C126,99.4,117.5,113.9,95.4,114.6ZM38.7,79C38.7,72.9,43.2,67.9,48.9,67.9C54.6,67.9,59.2,72.9,59.1,79C59.1,85.1,54.6,90.1,48.9,90.1C43.3,90.1,38.7,85.1,38.7,79ZM75.2,79C75.2,72.9,79.7,67.9,85.4,67.9C91.1,67.9,95.6,72.9,95.6,79C95.6,85.1,91.1,90.1,85.4,90.1C79.8,90.1,75.2,85.1,75.2,79Z" fill-rule="evenodd" transform="translate(61.8,49.6008) translate(-71,-80.2)"/>
    </g>
</svg>
