<?xml version="1.0" encoding="UTF-8" standalone="no"?>
<!-- Created with Keyshape -->
<svg xmlns="http://www.w3.org/2000/svg" shape-rendering="geometricPrecision" text-rendering="geometricPrecision" viewBox="0 0 64 64" style="white-space: pre;">
    <path fill-rule="evenodd" clip-rule="evenodd" d="M0.5,0C0.22375,0,0,0.22375,0,0.5C0,0.72125,0.143125,0.908125,0.341875,0.974375C0.366875,0.97875,0.37625,0.96375,0.37625,0.950625C0.37625,0.93875,0.375625,0.899375,0.375625,0.8575C0.25,0.880625,0.2175,0.826875,0.2075,0.79875C0.201875,0.784375,0.1775,0.74,0.15625,0.728125C0.13875,0.71875,0.11375,0.695625,0.155625,0.695C0.195,0.694375,0.223125,0.73125,0.2325,0.74625C0.2775,0.821875,0.349375,0.800625,0.378125,0.7875C0.3825,0.755,0.395625,0.733125,0.41,0.720625C0.29875,0.708125,0.1825,0.665,0.1825,0.47375C0.1825,0.419375,0.201875,0.374375,0.23375,0.339375C0.22875,0.326875,0.21125,0.275625,0.23875,0.206875C0.23875,0.206875,0.280625,0.19375,0.37625,0.258125C0.41625,0.246875,0.45875,0.24125,0.50125,0.24125C0.54375,0.24125,0.58625,0.246875,0.62625,0.258125C0.721875,0.193125,0.76375,0.206875,0.76375,0.206875C0.79125,0.275625,0.77375,0.326875,0.76875,0.339375C0.800625,0.374375,0.82,0.41875,0.82,0.47375C0.82,0.665625,0.703125,0.708125,0.591875,0.720625C0.61,0.73625,0.625625,0.76625,0.625625,0.813125C0.625625,0.88,0.625,0.93375,0.625,0.950625C0.625,0.96375,0.634375,0.979375,0.659375,0.974375C0.856875,0.908125,1,0.720625,1,0.5C1,0.22375,0.77625,0,0.5,0Z" fill="#cccccc" transform="translate(512,500.158) scale(64,64) translate(-8,-7.80264)"/>
</svg>
